<svg xmlns="http://www.w3.org/2000/svg" width="1280" height="640" viewBox="0 0 1280 640" role="img" aria-labelledby="title desc">
  <title id="title">Supply Chain Security Audit</title>
  <desc id="desc">Social preview image for the Supply Chain Security Audit Prompt Toolkit.</desc>
  <rect width="1280" height="640" fill="#020617"/>
  <path d="M0 520C230 440 330 610 560 520s330-210 720-120v240H0Z" fill="#0F172A"/>
  <path d="M128 130h1024v380H128Z" fill="#0B1220" stroke="#1E293B" stroke-width="2"/>
  <path d="M224 208 310 240v65c0 61-33 101-86 129-53-28-86-68-86-129v-65l86-32Z" fill="#111827" stroke="#2DD4BF" stroke-width="8" stroke-linejoin="round"/>
  <path d="M188 305c-13-13-13-34 0-47l8-8c13-13 34-13 47 0" fill="none" stroke="#94A3B8" stroke-width="13" stroke-linecap="round"/>
  <path d="M264 309c13 13 13 34 0 47l-8 8c-13 13-34 13-47 0" fill="none" stroke="#94A3B8" stroke-width="13" stroke-linecap="round"/>
  <path d="M199 333 255 277" fill="none" stroke="#38BDF8" stroke-width="13" stroke-linecap="round"/>
  <text x="384" y="250" fill="#F8FAFC" font-family="Inter, Segoe UI, Arial, sans-serif" font-size="64" font-weight="750">Evidence-first</text>
  <text x="384" y="328" fill="#F8FAFC" font-family="Inter, Segoe UI, Arial, sans-serif" font-size="64" font-weight="750">Supply Chain Audits</text>
  <text x="386" y="386" fill="#94A3B8" font-family="Inter, Segoe UI, Arial, sans-serif" font-size="28">npm, Composer, CI/CD, GitHub, Next.js, Vercel, TanStack and LGPD response</text>
</svg>
